<?xml version="1.0" encoding="utf-8"?>
<!-- Generator: Adobe Illustrator 16.0.3, SVG Export Plug-In . SVG Version: 6.00 Build 0)  -->
<!DOCTYPE svg PUBLIC "-//W3C//DTD SVG 1.1//EN" "http://www.w3.org/Graphics/SVG/1.1/DTD/svg11.dtd">
<svg version="1.1" id="Layer_1" xmlns="http://www.w3.org/2000/svg" xmlns:xlink="http://www.w3.org/1999/xlink" x="0px" y="0px"
	 width="127.999px" height="128px" viewBox="0 0 127.999 128" style="enable-background:new 0 0 127.999 128;" xml:space="preserve"
	>
<style type="text/css">
<![CDATA[
	.st0{fill:#231F20;}
]]>
</style>
<g>
	<path class="st0" d="M117.049,118.732h-4.629V49.613c0-1.658-1.343-3-3-3H94.859c-1.657,0-3,1.342-3,3v69.119h-4.403V60.566
		c0-1.656-1.343-3-3-3H69.896c-1.657,0-3,1.344-3,3v58.166H62.84V77.35c0-1.656-1.343-3-3-3H45.276c-1.657,0-3,1.344-3,3v41.383
		h-4.748V94.672c0-1.656-1.343-3-3-3H19.965c-1.657,0-3,1.344-3,3v24.061H10.95c-1.657,0-3,1.344-3,3c0,1.658,1.343,3,3,3h9.015
		h14.563h10.748H59.84h10.056h14.561h10.403h14.561h7.629c1.657,0,3-1.342,3-3C120.049,120.076,118.706,118.732,117.049,118.732z"/>
	<path class="st0" d="M24.082,70.566c0.515,0,1.034-0.158,1.481-0.486l75.235-55.438l-3.901,20.621l4.918,0.924l5.575-29.502
		L77.557,3.268l-0.573,4.971l20.842,2.383L22.597,66.055c-1.111,0.818-1.349,2.383-0.529,3.496
		C22.558,70.215,23.314,70.566,24.082,70.566z"/>
</g>
</svg>
