<?xml version="1.0" encoding="utf-8"?>
<!-- Generator: Adobe Illustrator 16.0.3, SVG Export Plug-In . SVG Version: 6.00 Build 0)  -->
<!DOCTYPE svg PUBLIC "-//W3C//DTD SVG 1.1//EN" "http://www.w3.org/Graphics/SVG/1.1/DTD/svg11.dtd">
<svg version="1.1" id="Layer_1" xmlns="http://www.w3.org/2000/svg" xmlns:xlink="http://www.w3.org/1999/xlink" x="0px" y="0px"
	 width="128px" height="128px" viewBox="0 0 128 128" style="enable-background:new 0 0 128 128;" xml:space="preserve">
<style type="text/css">
<![CDATA[
	.st0{fill-rule:evenodd;clip-rule:evenodd;}
]]>
</style>
<g>
	<path d="M92.149,70.107v-5.605h-3.747v5.605c0,13.413-11.103,24.29-24.52,24.29h-0.011c-13.415,0-24.29-10.877-24.29-24.29v-5.605
		h-3.731v5.605c0,14.12,10.469,25.686,24.051,27.633v10.39H44.98c-3.222,0-5.826,2.609-5.826,5.829c0,3.219,2.604,5.827,5.826,5.827
		h38.035c3.219,0,5.826-2.608,5.826-5.827c0-3.22-2.607-5.829-5.826-5.829H67.383V97.788C81.19,96.046,92.149,84.392,92.149,70.107z
		"/>
	<path d="M84.671,28.588c0-5.318-2.089-10.149-5.459-13.801v6.34c0,1.511-1.226,2.737-2.737,2.737c-1.513,0-2.737-1.227-2.737-2.737
		V10.516c-2.141-1.151-4.508-1.918-7.001-2.265v12.876c0,1.511-1.227,2.737-2.737,2.737c-1.513,0-2.737-1.227-2.737-2.737V8.214
		c-2.503,0.318-4.868,1.076-7.007,2.211v10.702c0,1.511-1.226,2.737-2.737,2.737c-1.513,0-2.737-1.227-2.737-2.737v-6.463
		c-3.382,3.664-5.465,8.546-5.465,13.924v32.173h41.354V28.588z"/>
	<path d="M63.877,90.429c11.357,0,20.794-9.208,20.794-20.558v-5.369H43.318v5.369C43.318,81.221,52.52,90.429,63.877,90.429z"/>
</g>
</svg>
