<?xml version="1.0" encoding="utf-8"?>
<!-- Generator: Adobe Illustrator 16.0.3, SVG Export Plug-In . SVG Version: 6.00 Build 0)  -->
<!DOCTYPE svg PUBLIC "-//W3C//DTD SVG 1.1//EN" "http://www.w3.org/Graphics/SVG/1.1/DTD/svg11.dtd">
<svg version="1.1" id="Layer_1" xmlns="http://www.w3.org/2000/svg" xmlns:xlink="http://www.w3.org/1999/xlink" x="0px" y="0px"
	 width="60px" height="60px" viewBox="0 0 60 60" enable-background="new 0 0 60 60" xml:space="preserve">
<g>
	<path fill="#231F20" d="M30,0C18.636,0,9.035,9.839,9.035,21.484c0,11.039,18.693,36.682,19.489,37.768
		C28.869,59.723,29.417,60,30,60s1.131-0.277,1.476-0.748c0.796-1.086,19.489-26.729,19.489-37.768C50.965,9.839,41.363,0,30,0z
		 M30,55.035c-5.926-8.393-17.307-26.059-17.307-33.551c0-9.663,7.926-17.826,17.307-17.826s17.306,8.163,17.306,17.826
		C47.306,28.974,35.925,46.642,30,55.035z"/>
	<path fill="#231F20" d="M30,14.735c-3.729,0-6.762,3.033-6.762,6.761s3.033,6.762,6.762,6.762c3.728,0,6.76-3.033,6.76-6.762
		S33.728,14.735,30,14.735z M30,26.429c-2.72,0-4.932-2.213-4.932-4.933S27.28,16.564,30,16.564c2.719,0,4.932,2.212,4.932,4.932
		S32.719,26.429,30,26.429z"/>
</g>
</svg>
