<?xml version="1.0" encoding="utf-8"?>
<!-- Generator: Adobe Illustrator 16.0.3, SVG Export Plug-In . SVG Version: 6.00 Build 0)  -->
<!DOCTYPE svg PUBLIC "-//W3C//DTD SVG 1.1//EN" "http://www.w3.org/Graphics/SVG/1.1/DTD/svg11.dtd">
<svg version="1.1" id="Layer_1" xmlns="http://www.w3.org/2000/svg" xmlns:xlink="http://www.w3.org/1999/xlink" x="0px" y="0px"
	 width="127.999px" height="128px" viewBox="0 0 127.999 128" style="enable-background:new 0 0 127.999 128;" xml:space="preserve"
	>
<style type="text/css">
<![CDATA[
	.st0{fill:#231F20;}
]]>
</style>
<g>
	<path class="st0" d="M82.154,4.585c-0.992-0.519-2.188-0.44-3.104,0.198L28.252,40.198H12.834c-5.279,0-9.574,4.295-9.574,9.575
		v28.453c0,5.278,4.295,9.573,9.574,9.573h15.418l50.799,35.417c0.512,0.357,1.113,0.539,1.715,0.539
		c0.475,0,0.951-0.112,1.389-0.341c0.99-0.517,1.611-1.542,1.611-2.659V7.244C83.766,6.127,83.145,5.102,82.154,4.585z"/>
	<path class="st0" d="M107.994,30.147c-1.518-1.198-3.717-0.939-4.916,0.578c-1.197,1.517-0.939,3.718,0.578,4.916
		c8.949,7.067,14.082,17.645,14.082,29.019c0,11.296-5.076,21.83-13.928,28.902c-1.51,1.206-1.758,3.409-0.551,4.919
		c0.691,0.865,1.709,1.315,2.736,1.315c0.768,0,1.539-0.25,2.184-0.766c10.523-8.407,16.559-20.936,16.559-34.371
		C124.738,51.131,118.637,38.551,107.994,30.147z"/>
	<path class="st0" d="M95.266,44.114c-1.58-1.115-3.764-0.74-4.879,0.838c-1.115,1.579-0.74,3.763,0.838,4.879
		c4.818,3.404,7.693,8.948,7.693,14.829c0,5.939-2.92,11.516-7.812,14.915c-1.588,1.103-1.98,3.284-0.877,4.871
		c0.68,0.979,1.77,1.503,2.877,1.503c0.689,0,1.385-0.203,1.994-0.626c6.773-4.707,10.818-12.432,10.818-20.663
		C105.918,56.51,101.936,48.829,95.266,44.114z"/>
</g>
</svg>
