<?xml version="1.0" encoding="utf-8"?>
<!-- Generator: Adobe Illustrator 16.0.3, SVG Export Plug-In . SVG Version: 6.00 Build 0)  -->
<!DOCTYPE svg PUBLIC "-//W3C//DTD SVG 1.1//EN" "http://www.w3.org/Graphics/SVG/1.1/DTD/svg11.dtd">
<svg version="1.1" id="Layer_1" xmlns="http://www.w3.org/2000/svg" xmlns:xlink="http://www.w3.org/1999/xlink" x="0px" y="0px"
	 width="128px" height="128px" viewBox="0 0 128 128" style="enable-background:new 0 0 128 128;" xml:space="preserve">
<style type="text/css">
<![CDATA[
	.st0{fill:#231F20;}
]]>
</style>
<path class="st0" d="M117.599,77.158L52.818,12.376c-0.516-0.517-1.207-0.822-1.937-0.857l-38.26-1.848
	c-0.837-0.041-1.641,0.274-2.228,0.865c-0.586,0.59-0.895,1.402-0.849,2.233l2.104,38.005c0.04,0.723,0.345,1.405,0.857,1.916
	l64.78,64.781c0.574,0.574,1.327,0.861,2.079,0.861s1.504-0.287,2.078-0.861l36.157-36.156c0.551-0.551,0.861-1.299,0.861-2.078
	C118.46,78.457,118.15,77.708,117.599,77.158z M39.756,33.024c0,1.7-0.662,3.297-1.863,4.498c-1.202,1.201-2.799,1.863-4.498,1.863
	s-3.296-0.663-4.498-1.863c-1.202-1.201-1.863-2.798-1.863-4.498c0-1.699,0.661-3.295,1.863-4.497
	c1.202-1.201,2.799-1.864,4.498-1.864s3.296,0.663,4.498,1.865C39.094,29.728,39.756,31.326,39.756,33.024z"/>
</svg>
